<?xml version="1.0" encoding="utf-8"?>
<!-- Generator: Adobe Illustrator 21.1.0, SVG Export Plug-In . SVG Version: 6.00 Build 0)  -->
<svg version="1.1" xmlns="http://www.w3.org/2000/svg" xmlns:xlink="http://www.w3.org/1999/xlink" x="0px" y="0px"
	 viewBox="0 0 258 15.3" style="enable-background:new 0 0 258 15.3;" xml:space="preserve">
<style type="text/css">
	.st0{fill:#1976D2;}
	.st1{fill:#FFFFFF;}
	.st2{fill:none;stroke:#C1C1C1;stroke-width:0.5;stroke-miterlimit:10;}
	.st3{fill:#2196F3;}
	.st4{fill:#BBDEFB;}
	.st5{fill:#03A9F4;}
	.st6{fill:#212121;}
	.st7{fill:#757575;}
	.st8{fill:#BDBDBD;}
	.st9{fill:none;}
	.st10{opacity:0.4;fill:#BBDEFB;}
	.st11{opacity:0.13;fill:#BBDEFB;}
	.st12{opacity:0.55;fill:none;stroke:#BBDEFB;stroke-width:6;stroke-miterlimit:10;}
	.st13{opacity:0.85;}
	.st14{opacity:0.19;fill:#03A9F4;}
	.st15{fill:#7A7A7A;}
	.st16{fill:none;stroke:#BBDEFB;stroke-width:9;stroke-miterlimit:10;}
	.st17{fill:none;stroke:#BBDEFB;stroke-width:3;stroke-miterlimit:10;}
	.st18{fill:#EDEDED;}
	.st19{fill:none;stroke:#EDEDED;stroke-width:4;stroke-miterlimit:10;}
	.st20{opacity:0.75;fill:#BBDEFB;}
	.st21{fill:none;stroke:#1976D2;stroke-width:3;stroke-miterlimit:10;}
	.st22{opacity:0.95;}
	.st23{fill:none;stroke:#FFFFFF;stroke-width:1.2948;stroke-miterlimit:10;}
	.st24{stroke:#000000;stroke-miterlimit:10;}
	.st25{fill:none;stroke:#000000;stroke-miterlimit:10;}
	.st26{fill:none;stroke:#FFFFFF;stroke-linecap:round;stroke-miterlimit:10;}
</style>
<g id="Calque_2">
</g>
<g id="Calque_5">
</g>
<g id="Calque_3">
</g>
<g id="Calque_4">
</g>
<g id="text">
	<g id="XMLID_48_">
		<g>
			<g id="XMLID_58_">
				<path class="st1" d="M11.7,12.8H3.9c-0.3,0-0.5-0.2-0.5-0.5V7.4c0-0.3,0.2-0.5,0.5-0.5s0.5,0.2,0.5,0.5v4.4h6.8V8.5H7.8
					C7.6,8.5,7.3,8.3,7.3,8s0.2-0.5,0.5-0.5h3.9c0.3,0,0.5,0.2,0.5,0.5v4.3C12.2,12.6,12,12.8,11.7,12.8z"/>
			</g>
			<g id="XMLID_57_">
				<path class="st1" d="M11.7,4.3H7.6C7.3,4.3,7.1,4,7.1,3.8s0.2-0.5,0.5-0.5h4.2c0.3,0,0.5,0.2,0.5,0.5S12,4.3,11.7,4.3z"/>
			</g>
			<g id="XMLID_56_">
				<path class="st1" d="M5.4,4.3h-3C2.2,4.3,1.9,4,1.9,3.8s0.2-0.5,0.5-0.5h3c0.3,0,0.5,0.2,0.5,0.5S5.7,4.3,5.4,4.3z"/>
			</g>
			<g id="XMLID_55_">
				<path class="st1" d="M3.9,5.7c-0.3,0-0.5-0.2-0.5-0.5v-3c0-0.3,0.2-0.5,0.5-0.5S4.4,2,4.4,2.3v3C4.4,5.5,4.2,5.7,3.9,5.7z"/>
			</g>
			<g id="XMLID_54_">
				<polygon class="st1" points="18.9,3.7 20.9,8 22.8,12.3 18.9,12.3 15,12.3 17,8 				"/>
			</g>
			<g id="XMLID_53_">
				<polygon class="st1" points="41.1,3.7 43.1,8 45,12.3 41.1,12.3 37.2,12.3 39.1,8 				"/>
			</g>
			<g id="XMLID_52_">
				<path class="st1" d="M33.9,4.3h-7.8c-0.3,0-0.5-0.2-0.5-0.5s0.2-0.5,0.5-0.5h7.8c0.3,0,0.5,0.2,0.5,0.5S34.2,4.3,33.9,4.3z"/>
			</g>
			<g id="XMLID_51_">
				<path class="st1" d="M33.9,8.5h-7.8c-0.3,0-0.5-0.2-0.5-0.5s0.2-0.5,0.5-0.5h7.8c0.3,0,0.5,0.2,0.5,0.5S34.2,8.5,33.9,8.5z"/>
			</g>
			<g id="XMLID_50_">
				<path class="st1" d="M33.9,12.8h-7.8c-0.3,0-0.5-0.2-0.5-0.5s0.2-0.5,0.5-0.5h7.8c0.3,0,0.5,0.2,0.5,0.5S34.2,12.8,33.9,12.8z"
					/>
			</g>
		</g>
	</g>
	<line id="XMLID_46_" class="st26" x1="54.2" y1="3.4" x2="54.2" y2="12.2"/>
	<g>
		<path class="st1" d="M65.3,8.6c-0.4,1.2-1,2-1.7,2.6l-0.9-0.7c0.7-0.6,1.2-1.3,1.6-2.3L65.3,8.6z M62.9,3.4h2.6V2.3h1.2v1.1h2.9
			V2.3h1.2v1.1h2.7v1.1h-2.7v0.9h-1.2V4.5h-2.9v0.9h-1.2V4.5h-2.6V3.4z M72.2,8.1c0.6,1,1.2,1.9,1.5,2.7l-0.9,0.6
			c-0.4-0.8-0.9-1.7-1.5-2.7c0,0.5,0,1-0.1,1.6c-0.1,1-0.3,1.7-0.5,2.1c-0.2,0.4-0.6,0.6-1.1,0.6h-1.9L67.4,12c0.6,0,1.2,0,1.7,0
			c0.5,0,0.8-0.3,0.9-0.9c0.2-0.6,0.3-1.9,0.3-3.8h-2.2c-0.1,1.5-0.5,2.6-1,3.6c-0.6,1-1.7,1.8-3.1,2.4l-0.6-1
			c1.4-0.6,2.4-1.3,2.9-2.1c0.4-0.7,0.7-1.7,0.8-2.8h-3.1V6.3H67v-1h1.2v1h3.3l-0.1,2.3L72.2,8.1z"/>
		<path class="st1" d="M76.9,5.4c-0.1,1.2-0.4,2.4-0.8,3.5l-1-0.3c0.4-1,0.7-2.2,0.9-3.5L76.9,5.4z M79.4,5.4c0.5,0.9,0.9,1.9,1.3,3
			l-0.9,0.5c-0.3-1-0.7-1.9-1.1-2.8v0c0,3.3-0.8,5.7-2.3,7.2l-0.8-0.7c1.3-1.3,2-3.5,2-6.5V2.4h1.1v3.4L79.4,5.4z M80.9,2.6H82v2.9
			l0.7-0.3c0.5,0.9,0.9,1.9,1.3,2.9L83,8.7c-0.3-1-0.7-1.9-1.1-2.7v6.9h-1.1V2.6z M84.2,2.3h1.1v11h-1.1V2.3z"/>
		<path class="st1" d="M89.3,7.8l1.1,0.1l-0.2,0.6h2.4v1c-0.2,0.7-0.6,1.4-1.1,1.9c0.6,0.3,1.1,0.5,1.4,0.7l-0.6,0.9
			c-0.5-0.3-1-0.6-1.7-0.9c-0.8,0.5-1.8,0.9-3,1.2l-0.6-1c0.9-0.2,1.7-0.5,2.3-0.8c-0.4-0.2-0.9-0.4-1.6-0.6c0.3-0.5,0.6-1,0.8-1.4
			h-1.2v-1h1.7L89.3,7.8z M87.4,4.4h2.3V2.2h1v2.2h2.1v1h-2.1v0.1C91.3,5.7,92,6,92.7,6.4l-0.6,0.9c-0.6-0.5-1-0.8-1.3-1v1.3h-1v-2
			c-0.4,0.9-1.1,1.6-2,2.3L87.1,7c0.8-0.5,1.4-1,1.8-1.5h-1.5V4.4z M88.5,2.4c0.3,0.4,0.5,0.9,0.7,1.4l-0.9,0.4
			c-0.2-0.6-0.5-1.1-0.8-1.5L88.5,2.4z M91.6,9.5h-1.8c-0.2,0.3-0.3,0.6-0.5,0.9c0.5,0.2,0.9,0.3,1.2,0.4C91,10.5,91.3,10,91.6,9.5z
			 M92.8,2.8c-0.2,0.5-0.6,1-0.9,1.5L91,3.9c0.3-0.5,0.6-1,0.9-1.5L92.8,2.8z M93.9,7.2c-0.2,0.5-0.4,0.9-0.6,1.2l-0.7-0.9
			c0.7-1.3,1.1-3.1,1.4-5.3l1.1,0.2c-0.1,0.7-0.2,1.2-0.2,1.6h3V5h-0.7c-0.1,2-0.4,3.6-1.1,5c0.6,1,1.3,1.7,2.1,2.3l-0.7,1
			c-0.8-0.6-1.4-1.3-2-2.2c-0.6,0.9-1.3,1.7-2.1,2.3l-0.6-1c0.9-0.6,1.6-1.4,2.1-2.4C94.6,9.2,94.3,8.2,93.9,7.2z M94.6,5l-0.1,0.5
			c0.3,1.2,0.6,2.3,1,3.2c0.4-1.1,0.6-2.3,0.6-3.8H94.6z"/>
		<path class="st1" d="M101.6,5.5h6.5v1.1c-0.8,0.6-1.6,1.1-2.5,1.6v0.6h4.6v1.1h-4.6v2.3c0,0.8-0.4,1.1-1.2,1.1H103l-0.3-1
			c0.6,0,1,0,1.4,0c0.3,0,0.4-0.2,0.4-0.5V9.8h-4.9V8.7h4.9V7.7c0.8-0.4,1.4-0.8,2-1.1h-4.8V5.5z M110.1,3.4v2.8h-1.2V4.5h-8v1.7
			h-1.2V3.4h4.6c-0.2-0.4-0.4-0.8-0.5-1.1l1.3-0.2c0.2,0.4,0.4,0.9,0.5,1.3H110.1z"/>
		<path class="st1" d="M115.7,10.6c-1.2,0.5-2.5,1-3.8,1.3l-0.3-1.2c0.4-0.1,0.9-0.2,1.5-0.3v-4h-1.3V5.3h1.3V2.3h1.1v3.1h1.2v1.1
			h-1.2v3.6c0.4-0.2,0.9-0.4,1.5-0.6V10.6z M122.3,4.1c0,2.6-0.1,4.3-0.2,4.9c-0.1,0.6-0.6,0.8-1.6,0.8h-0.1l-0.3-1.2
			c0.3,0,0.6,0,0.7,0c0.2,0,0.3-0.1,0.4-0.4c0-0.3,0.1-1.2,0.1-2.7L119.8,6v4.7h-1.1V6.3l-1.3,0.4v4.7c0,0.4,0.2,0.6,0.6,0.6h2.9
			c0.2,0,0.3-0.1,0.4-0.3c0.1-0.2,0.2-0.7,0.2-1.6l1.1,0.3c-0.1,1.3-0.3,2-0.5,2.3c-0.2,0.2-0.6,0.3-1,0.3h-3.5
			c-0.9,0-1.3-0.5-1.3-1.4V7l-0.7,0.2V6.1l0.7-0.2V3.4h1.1v2.1l1.3-0.4v-3h1.1v2.6L122.3,4.1z"/>
		<path class="st1" d="M134.4,2.6v10.6h-1.1v-0.4h-7.8v0.4h-1.1V2.6H134.4z M125.5,11.9h7.8V3.7h-7.8V11.9z M129.1,3.9
			c-0.1,0.2-0.1,0.3-0.2,0.5h3.1v0.8c-0.3,0.6-0.8,1.1-1.4,1.6c0.7,0.3,1.6,0.6,2.5,0.8l-0.6,0.9c-1.1-0.3-2.1-0.7-2.9-1.1
			c-0.9,0.4-2,0.8-3.3,1.1l-0.5-0.9c1.2-0.2,2.2-0.5,2.9-0.8c-0.4-0.3-0.7-0.5-1-0.8c-0.3,0.3-0.7,0.6-1.1,0.8L126,6
			c1-0.6,1.8-1.3,2.1-2.2L129.1,3.9z M127.3,9.6c1.6,0.3,3.1,0.7,4.6,1.2l-0.4,0.9c-1.5-0.5-3-1-4.6-1.3L127.3,9.6z M128.6,8
			c1,0.3,1.9,0.6,2.6,1l-0.5,0.8C129.8,9.3,129,9,128,8.7L128.6,8z M130.8,5.3h-2.5c0,0,0,0.1,0,0.1c0.4,0.4,0.9,0.7,1.4,1
			C130.2,6,130.6,5.7,130.8,5.3z"/>
		<path class="st1" d="M137.4,7c-0.4,0.5-0.7,0.9-1,1.2L136,7c1.1-1.4,1.9-3,2.5-4.9l1.1,0.5c-0.3,0.9-0.6,1.8-1.1,2.6v8.1h-1.1V7z
			 M139.3,3.7h3.5c-0.2-0.4-0.3-0.8-0.5-1.2l1.1-0.3c0.3,0.5,0.4,1,0.6,1.5h3.2v1.1h-7.9V3.7z M146.5,8.9v4.3h-1.1v-0.6h-4.1v0.6
			h-1.1V8.9H146.5z M140.4,5.5h5.8v1h-5.8V5.5z M140.4,7.1h5.8v1h-5.8V7.1z M141.3,11.6h4.1V10h-4.1V11.6z"/>
		<path class="st1" d="M150.6,10c-0.3,1.1-0.7,2.1-1.2,2.9l-1-0.6c0.5-0.8,0.8-1.6,1.1-2.5L150.6,10z M150.1,3h2.7
			c0.1-0.3,0.2-0.6,0.3-0.9l1.2,0.2c-0.1,0.2-0.2,0.5-0.3,0.8h3.8v6.1h-7.7V3z M152.4,13.1c-0.8,0-1.2-0.4-1.2-1.1V9.8h1.2v2
			c0,0.2,0.1,0.4,0.4,0.4h2.5c0.2,0,0.4-0.1,0.5-0.2c0.1-0.1,0.2-0.6,0.3-1.3l1.1,0.3c-0.1,1-0.3,1.6-0.5,1.8
			c-0.2,0.2-0.6,0.3-1.1,0.3H152.4z M151.2,4.8h5.5V4h-5.5V4.8z M151.2,6.4h5.5V5.7h-5.5V6.4z M156.7,8.1V7.3h-5.5v0.8H156.7z
			 M154,9.3c0.6,0.6,1.1,1.2,1.4,1.6l-0.9,0.6c-0.3-0.5-0.8-1.1-1.3-1.7L154,9.3z M157.8,9.5c0.7,0.9,1.2,1.7,1.6,2.5l-0.9,0.6
			c-0.4-0.8-0.9-1.6-1.6-2.5L157.8,9.5z"/>
		<path class="st1" d="M160.9,5.3h1.9V3.8c-0.7,0.1-1.3,0.2-1.6,0.2L160.9,3c1.5-0.1,2.9-0.4,4.2-0.7l0.4,1.1
			c-0.5,0.1-1,0.3-1.5,0.3v1.7h1.5v1.1h-1.5v0.5c0.6,0.5,1.3,1,1.9,1.7l-0.6,1c-0.6-0.7-1-1.2-1.3-1.5v5.2h-1.2V8.1
			c-0.5,1.1-1,2-1.7,2.9l-0.5-1.3c1-1,1.7-2.1,2.1-3.3h-1.7V5.3z M171.6,8.6l0.2,1.1l-1.1,0.2v3.3h-1.2v-3.2l-3.6,0.6l-0.2-1.1
			l3.8-0.6V2.3h1.2v6.5L171.6,8.6z M166.7,5.6c0.8,0.6,1.5,1.2,2.1,1.8L168,8.3c-0.5-0.6-1.2-1.2-2.1-1.8L166.7,5.6z M167,2.9
			c0.8,0.6,1.5,1.1,2.1,1.7l-0.8,0.8c-0.5-0.5-1.2-1.1-2.1-1.8L167,2.9z"/>
		<path class="st1" d="M173.3,13.1l-0.2-1.1c0.3,0,0.6,0.1,0.9,0.1c0.3,0,0.4-0.2,0.4-0.5V9.1c-0.5,0.2-1,0.4-1.3,0.5l-0.3-1.1
			c0.5-0.1,1.1-0.3,1.6-0.5V5.4h-1.4V4.3h1.4V2.2h1.1v2.1h1.2v1.1h-1.2v2.1c0.4-0.2,0.8-0.4,1.2-0.6v1.1c-0.3,0.2-0.7,0.4-1.2,0.6
			V12c0,0.8-0.4,1.2-1.2,1.2H173.3z M177,3.8h2.8V2.2h1.1v1.6h2.8v1.1h-2.8v1.7h2.4v1c-0.4,1.3-1,2.3-1.9,3.2c0.8,0.6,1.7,1,2.7,1.5
			l-0.6,0.9c-1.1-0.5-2.1-1.1-2.9-1.7c-0.9,0.7-2,1.3-3.3,1.7l-0.5-0.9c1.2-0.4,2.2-0.9,3-1.5c-0.9-0.9-1.6-2-1.9-3.2h-0.6V6.7h2.6
			V4.9H177V3.8z M179,7.7c0.3,0.9,0.8,1.8,1.6,2.5c0.7-0.7,1.3-1.6,1.6-2.5H179z"/>
		<path class="st1" d="M186.9,9.4c-0.1,1.6-0.4,2.9-1,3.9l-0.8-0.8c0.5-1,0.8-2.4,0.8-4V2.6h3.7v9.6c0,0.7-0.4,1.1-1.2,1.1h-0.9
			l-0.3-1c0.3,0,0.6,0.1,0.9,0.1c0.3,0,0.4-0.2,0.4-0.6V9.4H186.9z M188.6,5.5V3.6H187v1.9H188.6z M187,6.5v1.8h1.6V6.5H187z
			 M190.3,7.2h5.2v1.1c-0.3,1.1-0.8,2-1.5,2.8c0.7,0.5,1.4,0.9,2.3,1.2l-0.6,1c-1-0.4-1.8-0.9-2.5-1.5c-0.7,0.6-1.6,1.1-2.7,1.5
			l-0.6-1c1-0.3,1.8-0.8,2.5-1.3c-0.8-0.8-1.3-1.7-1.5-2.7h-0.5V7.2z M190.9,2.6h4v2.5c0,0.3,0.1,0.4,0.4,0.4h0.8v1.1H195
			c-0.8,0-1.2-0.4-1.2-1.2V3.6h-1.7v0.6c0,1.2-0.4,2.1-1.3,2.8L190,6.1c0.7-0.4,1-1,1-1.8V2.6z M191.9,8.3c0.2,0.7,0.7,1.4,1.2,2
			c0.5-0.6,1-1.3,1.2-2H191.9z"/>
		<path class="st1" d="M201.1,2.6c-0.3,0.9-0.7,1.8-1.2,2.6v8.1h-1.2V6.9c-0.4,0.5-0.8,0.9-1.1,1.3L197.3,7c1.2-1.4,2.2-3,2.8-4.9
			L201.1,2.6z M201.5,7.9v-1c-0.2,0.2-0.3,0.4-0.5,0.5l-0.9-0.8c1.1-1.1,2-2.5,2.5-4.3l1.1,0.4c-0.6,1.7-1.3,3-2.1,4.1h5.4
			c0,2.7-0.1,4.4-0.2,5c-0.1,0.9-0.6,1.3-1.6,1.3l-1.3,0l-0.3-1.1c0.6,0,1,0.1,1.4,0.1c0.4,0,0.6-0.3,0.7-0.8
			c0.1-0.3,0.1-1.5,0.1-3.4h-1.8c-0.2,1.2-0.5,2.3-0.8,3c-0.4,0.8-1.1,1.6-1.9,2.3l-0.7-0.9c0.7-0.6,1.3-1.2,1.6-1.9
			c0.3-0.7,0.6-1.5,0.7-2.5H201.5z M205.8,2.2c0.5,1.7,1.5,3.1,2.8,4.2l-0.8,0.9c-1.4-1.2-2.4-2.7-3-4.5L205.8,2.2z"/>
		<path class="st1" d="M218,10.8h-4.5v2.5h-1.1v-6c-0.6,0.7-1.3,1.4-2.1,2l-0.7-1c1.4-1.1,2.5-2.4,3.3-3.8h-3V3.4h3.5
			c0.1-0.4,0.3-0.8,0.5-1.3l1.2,0.1c-0.1,0.4-0.3,0.8-0.4,1.2h5.8v1.1h-6.3c-0.2,0.4-0.4,0.8-0.6,1.2h5.5v6.5c0,0.7-0.4,1-1.2,1
			h-1.3l-0.3-1c0.5,0,0.9,0.1,1.3,0.1c0.3,0,0.4-0.1,0.4-0.4V10.8z M213.6,6.7v1.1h4.5V6.7H213.6z M218,8.7h-4.5v1h4.5V8.7z"/>
		<path class="st1" d="M222.4,2.6h3.9v0.9c-0.4,1-0.8,2.1-1.3,3.3c0.8,1.1,1.2,2.1,1.2,2.9c0,0.6-0.1,1-0.4,1.2
			c-0.4,0.3-1,0.5-1.9,0.5l-0.4-1.2c0.3,0,0.5,0.1,0.6,0.1c0.3,0,0.6-0.1,0.7-0.1c0.1-0.1,0.2-0.2,0.2-0.4c0-0.8-0.4-1.7-1.2-2.7
			c0.5-1.1,0.9-2.2,1.3-3.3h-1.6v9.6h-1.1V2.6z M227.8,8v3.7c0.6-0.2,1.3-0.4,1.9-0.7L230,12c-0.9,0.4-2,0.7-3.3,1.1l-0.3-1
			c0.2-0.1,0.3-0.2,0.3-0.3V2.6h5.4V8h-2.1c0.1,0.6,0.3,1.2,0.6,1.7c0.5-0.3,1-0.8,1.5-1.3l0.7,0.7c-0.5,0.6-1.1,1.1-1.7,1.4
			c0.5,0.7,1.2,1.2,2,1.7l-0.6,1c-2-1.3-3.2-3-3.5-5.2H227.8z M231,4.8V3.7h-3.2v1.1H231z M227.8,5.8v1.1h3.2V5.8H227.8z"/>
		<path class="st1" d="M238.5,2.7c-0.9,2.5-2,4.4-3.4,5.7l-0.9-0.8c1.4-1.4,2.5-3.2,3.2-5.4L238.5,2.7z M242,8.7
			c0.8,1.3,1.6,2.7,2.2,4.1l-1.1,0.5c-0.2-0.4-0.3-0.8-0.5-1.2c-2.2,0.3-4.5,0.6-6.9,0.7l-0.2-1.1c0.8-0.3,2-2.1,3.6-5.5l1.1,0.4
			c-0.9,2-1.9,3.6-2.9,5c1.7-0.1,3.4-0.3,4.9-0.6c-0.4-0.8-0.8-1.5-1.2-2.1L242,8.7z M241.8,2.2c0.7,2.2,1.8,4,3.5,5.4l-0.8,0.9
			c-1.7-1.5-3-3.4-3.6-5.7L241.8,2.2z"/>
		<path class="st1" d="M246.7,5h7.6v1h-7.6V5z M253.5,13.2l-0.3-1.1l1.7,0c0.3,0,0.4-0.2,0.4-0.6V3.7h-8V2.6h9.2v9.2
			c0,0.9-0.4,1.4-1.3,1.4H253.5z M247.7,7.3h5.5v3.9h-5.5V7.3z M252.1,10.2V8.3h-3.3v1.9H252.1z"/>
	</g>
</g>
</svg>
